# AST/ASF file generated using VICON BodyLanguage
# -----------------------------------------------
:version 1.10
:name VICON
:units
  mass 1.0
  length 0.45
  angle deg
:documentation
   .ast/.asf automatically generated from VICON data using
   VICON BodyBuilder and BodyLanguage model FoxedUp or BRILLIANT.MOD
:root
   order TX TY TZ RX RY RZ
   axis XYZ
   position 0 0 0  
   orientation 0 0 0 
:bonedata
  begin
     id 1 
     name lhipjoint
     direction 0.645422 -0.672597 0.361999 
     length 2.39934 
     axis 0 0 0  XYZ
  end
  begin
     id 2 
     name lfemur
     direction 0.34202 -0.939693 0  
     length 6.58112  
     axis 0 0 20  XYZ
    dof rx ry rz
    limits (-160.0 20.0)
           (-70.0 70.0)
           (-60.0 70.0)
  end
  begin
     id 3 
     name ltibia
     direction 0.34202 -0.939693 0   
     length 7.02673   
     axis 0 0 20   XYZ
    dof rx
    limits (-10.0 170.0)
  end
  begin
     id 4 
     name lfoot
     direction 0.0835106 -0.229444 0.969733   
     length 2.08772   
     axis -90 7.62852e-016 20   XYZ
    dof rx rz
    limits (-45.0 90.0)
           (-70.0 20.0)
  end
  begin
     id 5 
     name ltoes
     direction 1.5358e-011 -4.21925e-011 1   
     length 1.04844   
     axis -90 7.62852e-016 20   XYZ
    dof rx
    limits (-90.0 20.0)
  end
  begin
     id 6 
     name rhipjoint
     direction -0.644959 -0.672941 0.362185   
     length 2.39812  
     axis 0 0 0  XYZ 
  end
  begin
     id 7 
     name rfemur
     direction -0.34202 -0.939693 0   
     length 6.67015   
     axis 0 0 -20   XYZ
    dof rx ry rz
    limits (-160.0 20.0)
           (-70.0 70.0)
           (-70.0 60.0)
  end
  begin
     id 8 
     name rtibia
     direction -0.34202 -0.939693 0   
     length 7.35735   
     axis 0 0 -20   XYZ
    dof rx
    limits (-10.0 170.0)
 end
 begin
     id 9 
     name rfoot
     direction -0.0670769 -0.184292 0.98058   
     length 2.25469  
     axis -90 -7.62852e-016 -20   XYZ
    dof rx rz
    limits (-45.0 90.0)
           (-20.0 70.0)
  end
  begin
     id 10 
     name rtoes
     direction -1.53575e-011 -4.21908e-011 1   
     length 1.13399   
     axis -90 -7.62852e-016 -20   XYZ
    dof rx
    limits (-90.0 20.0)
  end
  begin
     id 11 
     name lowerback
     direction -0.0188328 0.993434 -0.112847   
     length 2.27656   
     axis 0 0 0   XYZ
    dof rx ry rz
    limits (-20.0 45.0)
           (-30.0 30.0)
           (-30.0 30.0)
  end
  begin
     id 12 
     name upperback
     direction 0.00983139 0.998968 -0.04435   
     length 2.28631   
     axis 0 0 0   XYZ
    dof rx ry rz
    limits (-20.0 45.0)
           (-30.0 30.0)
           (-30.0 30.0)
  end
  begin
     id 13 
     name thorax
     direction 0.0177718 0.999807 0.00833073   
     length 2.30999   
     axis 0 0 0   XYZ
    dof rx ry rz
    limits (-20.0 45.0)
           (-30.0 30.0)
           (-30.0 30.0)
  end
  begin
     id 14 
     name lowerneck
     direction -0.0835025 0.993181 0.0813558   
     length 1.39447   
     axis 0 0 0   XYZ
    dof rx ry rz
    limits (-20.0 45.0)
           (-30.0 30.0)
           (-30.0 30.0)
  end
  begin
     id 15 
     name upperneck
     direction 0.210059 0.976535 0.0474817   
     length 1.39882   
     axis 0 0 0   XYZ
    dof rx ry rz
    limits (-20.0 45.0)
           (-30.0 30.0)
           (-30.0 30.0)
  end
  begin
     id 16
     name head
     direction 0.0780891 0.996944 -0.00207154  
     length 1.41828  
     axis 0 0 0   XYZ
    dof rx ry rz
    limits (-20.0 45.0)
           (-30.0 30.0)
           (-30.0 30.0)
  end
  begin
     id 17 
     name lclavicle
     direction 0.982414 0.166355 -0.0847829  
     length 3.57922  
     axis 0 0 0   XYZ
    dof ry rz
    limits (-20.0 10.0)
           (0.0 20.0)
  end
  begin
     id 18 
     name lhumerus
     direction 1 -4.48975e-011 5.47647e-028   
     length 4.76405   
     axis -180 -30 -90   XYZ
    dof rx ry rz
    limits (-60.0 90.0)
           (-90.0 90.0)
           (-90.0 90.0)
  end
  begin
     id 19
     name lradius
     direction 1 -4.48949e-011 -8.32142e-027   
     length 3.13759   
     axis -180 -30 -90   XYZ
    dof rx
    limits (-10.0 170.0)
  end
  begin
     id 20
     name lwrist
     direction 1 -4.48978e-011 -1.32705e-026   
     length 1.56879   
     axis 9.60836e-015 90 90   XYZ
    dof ry
    limits (-180.0 0.0)
 end
  begin
     id 21 
     name lhand
     direction 1 -4.48975e-011 -2.65409e-026   
     length 0.732262   
     axis 1.69354e-014 90 90   XYZ
    dof rx rz
    limits (-90.0 90.0)
           (-45.0 45.0)
  end
  begin
     id 22 
     name lfingers
     direction 1 -4.48923e-011 -5.30819e-026   
     length 0.590368   
     axis 3.38708e-014 90 90   XYZ
    dof rx
    limits (0.0 90.0)
  end
  begin
     id 23
     name lthumb
     direction 0.707107 -6.34914e-011 0.707107   
     length 0.847654   
     axis -90 45 2.85299e-015   XYZ
    dof rx rz
    limits (-45.0 45.0)
           (-45.0 45.0)
  end
  begin
     id 24 
     name rclavicle
     direction -0.963658 0.245183 -0.106063   
     length 3.43472  
     axis 0 0 0   XYZ 
    dof ry rz
    limits (-10.0 20.0)
           (-20.0 0.0)
  end
  begin
     id 25 
     name rhumerus
     direction -1 -4.48963e-011 -1.64784e-027  
     length 5.10161   
     axis -180 30 90   XYZ
    dof rx ry rz
    limits (-90.0 60.0)
           (-90.0 90.0)
           (-90.0 90.0)
  end
  begin
     id 26 
     name rradius
     direction -1 -4.48969e-011 -2.87943e-027   
     length 3.23267   
     axis -180 30 90   XYZ
    dof rx
    limits (-10.0 170.0)
  end
  begin
     id 27 
     name rwrist
     direction -1 -4.48982e-011 -1.32705e-026   
     length 1.61633   
     axis 9.60836e-015 -90 -90   XYZ
    dof ry
    limits (-180.0 0.0)
  end
  begin
     id 28
     name rhand
     direction -1 -4.48963e-011 -2.65409e-026   
     length 0.702   
     axis 1.69354e-014 -90 -90   XYZ
    dof rx rz
    limits (-90.0 90.0)
           (-45.0 45.0)
  end
  begin
     id 29
     name rfingers
     direction -1 -4.48934e-011 -5.30819e-026   
     length 0.565971   
     axis 3.38708e-014 -90 -90   XYZ
    dof rx
    limits (0.0 90.0)
  end
  begin
     id 30
     name rthumb
     direction -0.707107 -6.34908e-011 0.707107   
     length 0.812624   
     axis -90 -45 -2.85299e-015   XYZ
    dof rx rz
    limits (-45.0 45.0)
           (-45.0 45.0)
  end
:hierarchy
  begin
    root lhipjoint rhipjoint lowerback
    lhipjoint lfemur
    lfemur ltibia
    ltibia lfoot
    lfoot ltoes
    rhipjoint rfemur
    rfemur rtibia
    rtibia rfoot
    rfoot rtoes
    lowerback upperback
    upperback thorax
    thorax lowerneck lclavicle rclavicle
    lowerneck upperneck
    upperneck head
    lclavicle lhumerus
    lhumerus lradius
    lradius lwrist
    lwrist lhand lthumb
    lhand lfingers
    rclavicle rhumerus
    rhumerus rradius
    rradius rwrist
    rwrist rhand rthumb
    rhand rfingers
  end

#!OML:ASF \\sashay\E\basketball\basketball\Project 1\Capture day 1\Session 1\Subject.ASF
:FULLY-SPECIFIED
:DEGREES
145
root 11.3183 12.8442 13.9211 -362.834 56.841 -383.049
lowerback 27.8483 0.868969 9.78725
upperback 10.5611 4.64571 6.25571
thorax -3.26841 2.59144 -0.0642233
lowerneck -10.8096 -0.571008 -3.72989
upperneck -22.2515 2.49441 12.9323
head -5.07541 1.2683 4.73358
rclavicle -4.21423e-014 -4.92986e-014
rhumerus 29.8151 19.4032 -61.2702
rradius 77.5218
rwrist 30.5841
rhand -29.9592 34.1715
rfingers 7.12502
rthumb -3.27809 4.217
lclavicle -4.21423e-014 -4.92986e-014
lhumerus -44.0454 -10.3907 110.258
lradius 36.8898
lwrist 21.3909
lhand -19.715 38.659
lfingers 7.12502
lthumb 6.61496 68.5357
rfemur -63.7521 3.03892 12.7184
rtibia 72.8767
rfoot -26.0123 -5.42191
rtoes -48.7915
lfemur -14.9043 13.1843 -29.1291
ltibia 97.9506
lfoot -5.99206 10.4525
ltoes -21.1323
146
root 11.805 12.9335 14.0887 -363.478 57.2531 -383.435
lowerback 28.4884 1.0758 9.86018
upperback 10.7022 5.02272 6.29399
thorax -3.38349 2.7788 -0.192478
lowerneck -10.6654 -0.98251 -4.30041
upperneck -23.0324 2.20349 13.6333
head -5.31399 1.12782 5.08705
rclavicle -1.43125e-014 -2.8625e-014
rhumerus 30.3816 18.8599 -61.8439
rradius 70.5803
rwrist 31.2501
rhand -29.9409 34.7694
rfingers 7.12502
rthumb -3.26035 4.81457
lclavicle -1.43125e-014 -2.8625e-014
lhumerus -43.5123 -9.41517 110.309
lradius 34.1867
lwrist 22.6328
lhand -20.9444 39.2836
lfingers 7.12502
lthumb 5.428 69.1941
rfemur -60.4922 2.65767 12.7768
rtibia 72.3184
rfoot -26.7219 -8.65584
rtoes -50.6738
lfemur -19.6075 13.8589 -28.3469
ltibia 103.396
lfoot -6.15705 8.44973
ltoes -18.5814
147
root 12.2815 13.0389 14.2491 -363.064 57.8377 -383.584
lowerback 28.18 1.40639 9.22462
upperback 10.656 5.26713 6.61897
thorax -3.37782 2.87885 0.454298
lowerneck -10.502 -1.23575 -5.84455
upperneck -23.6185 2.17401 14.4379
head -5.51514 1.19489 5.64907
rclavicle 1.27222e-014 -1.27222e-014
rhumerus 31.3783 18.386 -62.389
rradius 63.1892
rwrist 32.2798
rhand -28.905 33.9268
rfingers 7.12502
rthumb -2.25993 3.95899
lclavicle 1.27222e-014 -1.27222e-014
lhumerus -43.1331 -7.87721 110.434
lradius 31.883
lwrist 20.3147
lhand -19.8106 39.9544
lfingers 7.12502
lthumb 6.52263 69.834
rfemur -58.1311 2.03712 12.6283
rtibia 71.5313
rfoot -27.1989 -10.4472
rtoes -51.4808
lfemur -25.4528 13.9226 -28.1595
ltibia 107.916
lfoot -6.33432 6.16531
ltoes -18.9201
148
root 12.7273 13.1164 14.4169 -362.222 58.3796 -384.196
lowerback 27.0464 1.91913 8.90496
upperback 10.3527 5.69412 6.67265
thorax -3.20478 3.07236 0.609289
lowerneck -9.55131 -1.28318 -5.93493
upperneck -25.3362 2.28477 14.0776
head -6.24268 1.23364 5.59032
rclavicle -9.38264e-014 1.27222e-014
rhumerus 32.05 16.678 -64.2153
rradius 55.5385
rwrist 33.9907
rhand -26.4987 31.893
rfingers 7.12502
rthumb 0.0641232 1.9133
lclavicle -9.38264e-014 1.27222e-014
lhumerus -43.5373 -7.72186 110.493
lradius 30.4608
lwrist 17.4221
lhand -18.9972 40.1326
lfingers 7.12502
lthumb 7.30787 69.9864
rfemur -56.9359 1.59815 12.7039
rtibia 70.772
rfoot -26.6064 -12.7199
rtoes -52.4297
lfemur -32.6027 13.9375 -27.8923
ltibia 111.929
lfoot -6.5992 3.44983
ltoes -21.1777
149
root 13.2138 13.2438 14.5665 -362.709 59.0036 -385.073
lowerback 27.1127 2.18525 9.50621
upperback 10.223 6.16264 6.2792
thorax -3.24346 3.31078 -0.286848
lowerneck -9.59765 -1.71569 -5.40622
upperneck -25.732 1.79107 14.3266
head -6.30834 0.940331 5.60124
rclavicle -1.11319e-014 3.57812e-014
rhumerus 33.2841 12.8798 -67.7989
rradius 46.165
rwrist 37.5073
rhand -24.0611 29.9002
rfingers 7.12502
rthumb 2.41833 -0.0658589
lclavicle -1.11319e-014 3.57812e-014
lhumerus -44.5211 -9.04634 110.386
lradius 29.8343
lwrist 14.3727
lhand -18.5076 39.81
lfingers 7.12502
lthumb 7.78041 69.6468
rfemur -54.0132 1.14577 12.857
rtibia 69.5255
rfoot -27.1919 -12.5109
rtoes -52.6261
lfemur -38.1573 13.7187 -27.5546
ltibia 114.482
lfoot -6.75356 1.00268
ltoes -24.3751
150
root 13.7167 13.3725 14.7128 -363.867 59.5345 -386.108
lowerback 27.615 2.32799 10.0832
upperback 10.2438 6.54468 6.05137
thorax -3.33283 3.50908 -0.983246
lowerneck -9.36795 -1.94021 -4.97648
upperneck -26.2955 1.5062 14.0877
head -6.50652 0.771811 5.46489
rclavicle -6.75868e-014 -1.90833e-014
rhumerus 35.0791 7.84107 -72.2526
rradius 36.4658
rwrist 42.0677
rhand -21.0349 26.8543
rfingers 7.12502
rthumb 5.34069 -3.05842
lclavicle -6.75868e-014 -1.90833e-014
lhumerus -45.614 -10.2248 110.652
lradius 29.6591
lwrist 11.3366
lhand -18.3772 38.6159
lfingers 7.12502
lthumb 7.90624 68.448
rfemur -50.3938 0.810353 13.0591
rtibia 68.066
rfoot -27.9138 -12.0157
rtoes -53.3564
lfemur -42.7721 13.707 -27.1212
ltibia 115.993
lfoot -6.84638 -1.12488
ltoes -26.1382
151
root 14.2163 13.4856 14.859 -364.686 60.002 -386.959
lowerback 27.7531 2.47349 10.124
upperback 10.2703 6.76363 6.04417
thorax -3.34579 3.6188 -1.08117
lowerneck -8.72826 -2.04448 -4.87847
upperneck -27.0895 1.36963 13.6894
head -6.86876 0.693666 5.34175
rclavicle -6.2816e-014 8.5875e-014
rhumerus 37.5124 1.25406 -78.2648
rradius 26.9877
rwrist 47.5496
rhand -16.3598 22.4769
rfingers 7.12502
rthumb 9.85303 -7.2726
lclavicle -6.2816e-014 8.5875e-014
lhumerus -46.6599 -10.8268 111.26
lradius 29.7683
lwrist 8.70645
lhand -18.5539 36.6385
lfingers 7.12502
lthumb 7.73576 66.477
rfemur -46.9468 0.530814 13.1487
rtibia 66.3292
rfoot -27.0762 -10.8737
rtoes -52.2568
lfemur -47.5858 13.6075 -27.0898
ltibia 116.758
lfoot -7.00583 -2.32393
ltoes -27.4418
152
root 14.7348 13.617 14.9958 -365.503 60.5979 -387.561
lowerback 28.0262 2.5747 9.98964
upperback 10.3359 6.90188 6.04014
thorax -3.4081 3.6866 -1.06687
lowerneck -8.51059 -2.13908 -4.88088
upperneck -27.0026 1.22761 13.7472
head -6.85929 0.614677 5.36237
rclavicle 1.59028e-014 -6.20208e-014
rhumerus 41.2955 -10.3441 -89.3956
rradius 17.8826
rwrist 56.9633
rhand -15.0682 22.3211
rfingers 7.12502
rthumb 11.099 -7.36542
lclavicle 1.59028e-014 -6.20208e-014
lhumerus -47.7401 -11.5145 112.039
lradius 30.0409
lwrist 6.76306
lhand -19.0501 34.4549
lfingers 7.12502
lthumb 7.25677 64.3105
rfemur -43.2084 0.117392 12.9474
rtibia 64.4078
rfoot -27.8345 -9.63739
rtoes -53.9303
lfemur -51.8635 13.1616 -27.4397
ltibia 116.518
lfoot -6.99746 -2.49202
ltoes -28.2688
153
root 15.2626 13.7447 15.1345 -366.578 61.2986 -388.445
lowerback 28.1904 2.72468 9.84704
upperback 10.4524 7.09417 6.14541
thorax -3.3742 3.78689 -0.933807
lowerneck -8.77251 -2.26585 -4.82993
upperneck -26.7689 1.06161 13.8638
head -6.71832 0.541078 5.38625
rclavicle 2.14687e-014 -3.18055e-015
rhumerus 46.8612 -24.5475 -103.952
rradius 13.8397
rwrist 65.9959
rhand -15.1094 25.5997
rfingers 7.12502
rthumb 11.0592 -4.08895
lclavicle 2.14687e-014 -3.18055e-015
lhumerus -48.6831 -12.185 112.802
lradius 30.3965
lwrist 5.16482
lhand -19.1624 31.9672
lfingers 7.12502
lthumb 7.14838 61.8265
rfemur -39.2234 -0.33884 12.8239
rtibia 62.1829
rfoot -27.1971 -7.9698
rtoes -53.6614
lfemur -55.7824 12.558 -27.7254
ltibia 115.509
lfoot -6.74315 -2.27664
ltoes -27.9884
